<svg width="225" height="59" viewBox="0 0 225 59" fill="none" xmlns="http://www.w3.org/2000/svg">
<g clip-path="url(#clip0_1095_1407)">
<path d="M92.2653 19.547H78.5181L78.5696 42.9417H71.9277V14.16H92.3167L92.2653 19.547Z" fill="#005D62"/>
<path d="M114.714 15.3913C116.619 16.2635 118.06 17.4435 119.09 19.0339C120.12 20.573 120.635 22.4713 120.635 24.5748C120.635 26.6783 120.12 28.5252 119.09 30.1157C118.06 31.7061 116.619 32.8861 114.714 33.7583C112.809 34.5791 110.595 34.9896 108.02 34.9896H102.202V42.9417H95.5088V14.16H108.02C110.595 14.1087 112.86 14.5191 114.714 15.3913ZM112.294 28.2174C113.323 27.3452 113.838 26.1139 113.838 24.5235C113.838 22.8817 113.323 21.6504 112.294 20.7783C111.264 19.9061 109.719 19.4957 107.711 19.4957H102.254V29.5H107.711C109.719 29.5513 111.212 29.0896 112.294 28.2174Z" fill="#005D62"/>
<path d="M150.498 42.8904L150.446 25.6522L141.951 39.8635H138.964L130.469 26.0113V42.9417H124.188V14.16H129.748L140.56 32.0652L151.218 14.16H156.728L156.779 42.9417H150.498V42.8904Z" fill="#005D62"/>
<g style="mix-blend-mode:multiply">
<g style="mix-blend-mode:multiply">
<path d="M185.664 15.0322H182.626V20.2139H182.214V14.673H185.664V15.0322Z" fill="#333333"/>
<path d="M185.664 15.0322H182.626V20.2139H182.214V14.673H185.664V15.0322Z" stroke="#444444"/>
</g>
<g style="mix-blend-mode:multiply">
<path d="M185.51 16.0583H185.922V19.5983L188.856 16.0583H189.217V20.1626H188.805V16.6226L185.87 20.1626H185.51V16.0583Z" fill="#333333"/>
<path d="M185.51 16.0583H185.922V19.5983L188.856 16.0583H189.217V20.1626H188.805V16.6226L185.87 20.1626H185.51V16.0583Z" stroke="#444444"/>
</g>
<g style="mix-blend-mode:multiply">
<path d="M194.159 16.0583V20.1626H193.747V16.4174H191.585L191.533 17.4948C191.482 18.0591 191.43 18.5209 191.379 18.9313C191.327 19.2904 191.225 19.6496 191.07 19.8548C190.916 20.1113 190.71 20.2139 190.452 20.2139C190.349 20.2139 190.246 20.2139 190.092 20.1626L190.143 19.8035C190.246 19.8035 190.298 19.8548 190.349 19.8548C190.555 19.8548 190.761 19.7522 190.864 19.547C190.967 19.3417 191.07 19.0852 191.122 18.7261C191.173 18.4183 191.173 18.0078 191.225 17.4948L191.276 16.0583H194.159Z" fill="#333333"/>
<path d="M194.159 16.0583V20.1626H193.747V16.4174H191.585L191.533 17.4948C191.482 18.0591 191.43 18.5209 191.379 18.9313C191.327 19.2904 191.225 19.6496 191.07 19.8548C190.916 20.1113 190.71 20.2139 190.452 20.2139C190.349 20.2139 190.246 20.2139 190.092 20.1626L190.143 19.8035C190.246 19.8035 190.298 19.8548 190.349 19.8548C190.555 19.8548 190.761 19.7522 190.864 19.547C190.967 19.3417 191.07 19.0852 191.122 18.7261C191.173 18.4183 191.173 18.0078 191.225 17.4948L191.276 16.0583H194.159Z" stroke="#444444"/>
</g>
<g style="mix-blend-mode:multiply">
<path d="M198.69 17.9052C198.948 18.1104 199.102 18.4183 199.102 18.88C199.102 19.3417 198.948 19.6496 198.69 19.9061C198.382 20.1626 197.97 20.2652 197.455 20.2652H195.91V16.1609H196.322V17.6487H197.558C198.021 17.5974 198.433 17.7 198.69 17.9052ZM198.382 19.6496C198.587 19.4956 198.69 19.2391 198.69 18.88C198.69 18.5722 198.587 18.3156 198.382 18.1617C198.176 18.0078 197.867 17.9052 197.403 17.9052H196.271V19.9061H197.403C197.815 19.9061 198.176 19.8035 198.382 19.6496Z" fill="#333333"/>
<path d="M198.69 17.9052C198.948 18.1104 199.102 18.4183 199.102 18.88C199.102 19.3417 198.948 19.6496 198.69 19.9061C198.382 20.1626 197.97 20.2652 197.455 20.2652H195.91V16.1609H196.322V17.6487H197.558C198.021 17.5974 198.433 17.7 198.69 17.9052ZM198.382 19.6496C198.587 19.4956 198.69 19.2391 198.69 18.88C198.69 18.5722 198.587 18.3156 198.382 18.1617C198.176 18.0078 197.867 17.9052 197.403 17.9052H196.271V19.9061H197.403C197.815 19.9061 198.176 19.8035 198.382 19.6496Z" stroke="#444444"/>
</g>
<g style="mix-blend-mode:multiply">
<path d="M203.993 19.8548V21.24H203.633V20.2139H199.72V21.24H199.359V19.8548H199.617C199.874 19.8548 200.08 19.5983 200.183 19.1878C200.286 18.7774 200.338 18.1617 200.389 17.4435L200.441 16.1096H203.375V19.9061H203.993V19.8548ZM200.544 19.0339C200.441 19.4443 200.338 19.7522 200.132 19.8548H202.912V16.4174H200.75L200.698 17.4435C200.698 18.0591 200.647 18.6235 200.544 19.0339Z" fill="#333333"/>
<path d="M203.993 19.8548V21.24H203.633V20.2139H199.72V21.24H199.359V19.8548H199.617C199.874 19.8548 200.08 19.5983 200.183 19.1878C200.286 18.7774 200.338 18.1617 200.389 17.4435L200.441 16.1096H203.375V19.9061H203.993V19.8548ZM200.544 19.0339C200.441 19.4443 200.338 19.7522 200.132 19.8548H202.912V16.4174H200.75L200.698 17.4435C200.698 18.0591 200.647 18.6235 200.544 19.0339Z" stroke="#444444"/>
</g>
<g style="mix-blend-mode:multiply">
<path d="M205.126 16.0583H205.538V19.5983L208.473 16.0583H208.833V20.1626H208.421V16.6226L205.486 20.1626H205.126V16.0583Z" fill="#333333"/>
<path d="M205.126 16.0583H205.538V19.5983L208.473 16.0583H208.833V20.1626H208.421V16.6226L205.486 20.1626H205.126V16.0583Z" stroke="#444444"/>
</g>
<g style="mix-blend-mode:multiply">
<path d="M213.622 16.0583V20.1626H213.261V18.7261H211.871C211.768 18.7261 211.717 18.7261 211.665 18.7261L210.636 20.1626H210.224L211.305 18.6748C210.944 18.6235 210.687 18.4696 210.533 18.2643C210.378 18.0591 210.275 17.7513 210.275 17.4435C210.275 16.9817 210.43 16.6739 210.739 16.4174C211.047 16.1609 211.459 16.0583 211.974 16.0583H213.622ZM211.923 18.4696H213.261V16.4174H211.974C211.099 16.4174 210.636 16.7765 210.636 17.4435C210.636 18.1104 211.047 18.4696 211.923 18.4696Z" fill="#333333"/>
<path d="M213.622 16.0583V20.1626H213.261V18.7261H211.871C211.768 18.7261 211.717 18.7261 211.665 18.7261L210.636 20.1626H210.224L211.305 18.6748C210.944 18.6235 210.687 18.4696 210.533 18.2643C210.378 18.0591 210.275 17.7513 210.275 17.4435C210.275 16.9817 210.43 16.6739 210.739 16.4174C211.047 16.1609 211.459 16.0583 211.974 16.0583H213.622ZM211.923 18.4696H213.261V16.4174H211.974C211.099 16.4174 210.636 16.7765 210.636 17.4435C210.636 18.1104 211.047 18.4696 211.923 18.4696Z" stroke="#444444"/>
</g>
<g style="mix-blend-mode:multiply">
<path d="M185.201 27.3452C185.509 27.4991 185.767 27.7557 185.921 28.0635C186.076 28.3713 186.179 28.7304 186.179 29.1409C186.179 29.5513 186.076 29.9104 185.921 30.2183C185.767 30.5261 185.509 30.7826 185.201 30.9365C184.892 31.0904 184.531 31.193 184.171 31.193C183.81 31.193 183.45 31.0904 183.193 30.9365C182.884 30.7826 182.678 30.5261 182.523 30.2183V32.6809H182.111V27.0374H182.472V28.0122C182.626 27.7043 182.884 27.4478 183.141 27.2939C183.45 27.14 183.759 27.0374 184.119 27.0374C184.583 27.0887 184.892 27.1913 185.201 27.3452ZM184.995 30.7313C185.252 30.5774 185.458 30.3722 185.612 30.1157C185.767 29.8591 185.818 29.5513 185.818 29.1922C185.818 28.833 185.767 28.5765 185.612 28.2687C185.458 28.0122 185.252 27.807 184.995 27.653C184.737 27.4991 184.48 27.4478 184.119 27.4478C183.81 27.4478 183.501 27.4991 183.244 27.653C182.987 27.807 182.781 28.0122 182.626 28.2687C182.472 28.5252 182.42 28.833 182.42 29.1922C182.42 29.5513 182.472 29.8078 182.626 30.1157C182.781 30.3722 182.987 30.5774 183.244 30.7313C183.501 30.8852 183.759 30.9365 184.119 30.9365C184.48 30.9365 184.737 30.8339 184.995 30.7313Z" fill="#333333"/>
<path d="M185.201 27.3452C185.509 27.4991 185.767 27.7557 185.921 28.0635C186.076 28.3713 186.179 28.7304 186.179 29.1409C186.179 29.5513 186.076 29.9104 185.921 30.2183C185.767 30.5261 185.509 30.7826 185.201 30.9365C184.892 31.0904 184.531 31.193 184.171 31.193C183.81 31.193 183.45 31.0904 183.193 30.9365C182.884 30.7826 182.678 30.5261 182.523 30.2183V32.6809H182.111V27.0374H182.472V28.0122C182.626 27.7043 182.884 27.4478 183.141 27.2939C183.45 27.14 183.759 27.0374 184.119 27.0374C184.583 27.0887 184.892 27.1913 185.201 27.3452ZM184.995 30.7313C185.252 30.5774 185.458 30.3722 185.612 30.1157C185.767 29.8591 185.818 29.5513 185.818 29.1922C185.818 28.833 185.767 28.5765 185.612 28.2687C185.458 28.0122 185.252 27.807 184.995 27.653C184.737 27.4991 184.48 27.4478 184.119 27.4478C183.81 27.4478 183.501 27.4991 183.244 27.653C182.987 27.807 182.781 28.0122 182.626 28.2687C182.472 28.5252 182.42 28.833 182.42 29.1922C182.42 29.5513 182.472 29.8078 182.626 30.1157C182.781 30.3722 182.987 30.5774 183.244 30.7313C183.501 30.8852 183.759 30.9365 184.119 30.9365C184.48 30.9365 184.737 30.8339 184.995 30.7313Z" stroke="#444444"/>
</g>
<g style="mix-blend-mode:multiply">
<path d="M187.518 27.14H187.929V30.68L190.864 27.14H191.225V31.2443H190.813V27.7043L187.878 31.2443H187.518V27.14Z" fill="#333333"/>
<path d="M187.518 27.14H187.929V30.68L190.864 27.14H191.225V31.2443H190.813V27.7043L187.878 31.2443H187.518V27.14Z" stroke="#444444"/>
</g>
<g style="mix-blend-mode:multiply">
<path d="M194.983 27.3452C195.292 27.5504 195.549 27.7557 195.755 28.1148C195.961 28.4226 196.064 28.7817 196.064 29.1922C196.064 29.6026 195.961 29.9617 195.755 30.2696C195.549 30.5774 195.292 30.8339 194.983 31.0391C194.674 31.2443 194.313 31.2957 193.902 31.2957C193.593 31.2957 193.284 31.2444 192.975 31.1417C192.717 31.0391 192.46 30.8852 192.254 30.68L192.46 30.4235C192.82 30.7313 193.284 30.9365 193.85 30.9365C194.159 30.9365 194.468 30.8852 194.725 30.7313C194.983 30.5774 195.189 30.3722 195.395 30.167C195.549 29.9104 195.652 29.6539 195.652 29.3461H193.335V29.0383H195.652C195.601 28.7304 195.498 28.4739 195.343 28.2174C195.189 27.9609 194.983 27.807 194.725 27.653C194.468 27.4991 194.159 27.4478 193.85 27.4478C193.284 27.4478 192.82 27.6017 192.46 27.9609L192.254 27.7557C192.46 27.5504 192.666 27.3965 192.975 27.2939C193.232 27.1913 193.541 27.14 193.902 27.14C194.313 27.0887 194.674 27.1913 194.983 27.3452Z" fill="#333333"/>
<path d="M194.983 27.3452C195.292 27.5504 195.549 27.7557 195.755 28.1148C195.961 28.4226 196.064 28.7817 196.064 29.1922C196.064 29.6026 195.961 29.9617 195.755 30.2696C195.549 30.5774 195.292 30.8339 194.983 31.0391C194.674 31.2443 194.313 31.2957 193.902 31.2957C193.593 31.2957 193.284 31.2444 192.975 31.1417C192.717 31.0391 192.46 30.8852 192.254 30.68L192.46 30.4235C192.82 30.7313 193.284 30.9365 193.85 30.9365C194.159 30.9365 194.468 30.8852 194.725 30.7313C194.983 30.5774 195.189 30.3722 195.395 30.167C195.549 29.9104 195.652 29.6539 195.652 29.3461H193.335V29.0383H195.652C195.601 28.7304 195.498 28.4739 195.343 28.2174C195.189 27.9609 194.983 27.807 194.725 27.653C194.468 27.4991 194.159 27.4478 193.85 27.4478C193.284 27.4478 192.82 27.6017 192.46 27.9609L192.254 27.7557C192.46 27.5504 192.666 27.3965 192.975 27.2939C193.232 27.1913 193.541 27.14 193.902 27.14C194.313 27.0887 194.674 27.1913 194.983 27.3452Z" stroke="#444444"/>
</g>
<g style="mix-blend-mode:multiply">
<path d="M200.544 27.14V31.2443H200.132V27.4991H197.97L197.918 28.5765C197.867 29.1409 197.815 29.6026 197.764 30.013C197.712 30.4235 197.609 30.7313 197.455 30.9365C197.3 31.193 197.094 31.2957 196.837 31.2957C196.734 31.2957 196.631 31.2957 196.477 31.2443L196.528 30.8852C196.631 30.8852 196.683 30.9365 196.734 30.9365C196.94 30.9365 197.146 30.8339 197.249 30.6287C197.352 30.4235 197.455 30.167 197.506 29.8078C197.558 29.5 197.558 29.0896 197.609 28.5765L197.661 27.14H200.544Z" fill="#333333"/>
<path d="M200.544 27.14V31.2443H200.132V27.4991H197.97L197.918 28.5765C197.867 29.1409 197.815 29.6026 197.764 30.013C197.712 30.4235 197.609 30.7313 197.455 30.9365C197.3 31.193 197.094 31.2957 196.837 31.2957C196.734 31.2957 196.631 31.2957 196.477 31.2443L196.528 30.8852C196.631 30.8852 196.683 30.9365 196.734 30.9365C196.94 30.9365 197.146 30.8339 197.249 30.6287C197.352 30.4235 197.455 30.167 197.506 29.8078C197.558 29.5 197.558 29.0896 197.609 28.5765L197.661 27.14H200.544Z" stroke="#444444"/>
</g>
<g style="mix-blend-mode:multiply">
<path d="M205.023 27.4991H203.427V31.2443H203.015V27.4991H201.419V27.14H205.075V27.4991H205.023Z" fill="#333333"/>
<path d="M205.023 27.4991H203.427V31.2443H203.015V27.4991H201.419V27.14H205.075V27.4991H205.023Z" stroke="#444444"/>
</g>
<g style="mix-blend-mode:multiply">
<path d="M206.259 31.0391C205.95 30.8852 205.692 30.6287 205.538 30.2696C205.383 29.9617 205.28 29.6026 205.28 29.1922C205.28 28.7817 205.383 28.4226 205.538 28.1148C205.692 27.807 205.95 27.5504 206.259 27.3452C206.567 27.1913 206.928 27.0887 207.34 27.0887C207.752 27.0887 208.061 27.1913 208.421 27.3452C208.73 27.4991 208.987 27.7556 209.142 28.1148C209.296 28.4226 209.399 28.7817 209.399 29.1922C209.399 29.6026 209.296 29.9617 209.142 30.2696C208.987 30.5774 208.73 30.8339 208.421 31.0391C208.112 31.193 207.752 31.2956 207.34 31.2956C206.928 31.2956 206.567 31.193 206.259 31.0391ZM208.164 30.7313C208.421 30.5774 208.627 30.3722 208.781 30.1156C208.936 29.8591 208.987 29.5513 208.987 29.1922C208.987 28.833 208.936 28.5765 208.781 28.2687C208.627 28.0122 208.421 27.807 208.164 27.653C207.906 27.4991 207.649 27.4478 207.288 27.4478C206.979 27.4478 206.67 27.4991 206.413 27.653C206.156 27.807 205.95 28.0122 205.795 28.2687C205.641 28.5252 205.589 28.833 205.589 29.1922C205.589 29.5513 205.641 29.8078 205.795 30.1156C205.95 30.3722 206.156 30.5774 206.413 30.7313C206.67 30.8852 206.928 30.9365 207.288 30.9365C207.649 30.9365 207.906 30.8339 208.164 30.7313Z" fill="#333333"/>
<path d="M206.259 31.0391C205.95 30.8852 205.692 30.6287 205.538 30.2696C205.383 29.9617 205.28 29.6026 205.28 29.1922C205.28 28.7817 205.383 28.4226 205.538 28.1148C205.692 27.807 205.95 27.5504 206.259 27.3452C206.567 27.1913 206.928 27.0887 207.34 27.0887C207.752 27.0887 208.061 27.1913 208.421 27.3452C208.73 27.4991 208.987 27.7556 209.142 28.1148C209.296 28.4226 209.399 28.7817 209.399 29.1922C209.399 29.6026 209.296 29.9617 209.142 30.2696C208.987 30.5774 208.73 30.8339 208.421 31.0391C208.112 31.193 207.752 31.2956 207.34 31.2956C206.928 31.2956 206.567 31.193 206.259 31.0391ZM208.164 30.7313C208.421 30.5774 208.627 30.3722 208.781 30.1156C208.936 29.8591 208.987 29.5513 208.987 29.1922C208.987 28.833 208.936 28.5765 208.781 28.2687C208.627 28.0122 208.421 27.807 208.164 27.653C207.906 27.4991 207.649 27.4478 207.288 27.4478C206.979 27.4478 206.67 27.4991 206.413 27.653C206.156 27.807 205.95 28.0122 205.795 28.2687C205.641 28.5252 205.589 28.833 205.589 29.1922C205.589 29.5513 205.641 29.8078 205.795 30.1156C205.95 30.3722 206.156 30.5774 206.413 30.7313C206.67 30.8852 206.928 30.9365 207.288 30.9365C207.649 30.9365 207.906 30.8339 208.164 30.7313Z" stroke="#444444"/>
</g>
<g style="mix-blend-mode:multiply">
<path d="M213.828 27.3452C214.136 27.4991 214.394 27.7557 214.548 28.0635C214.703 28.3713 214.806 28.7304 214.806 29.1409C214.806 29.5513 214.703 29.9104 214.548 30.2183C214.394 30.5261 214.136 30.7826 213.828 30.9365C213.519 31.0904 213.158 31.193 212.798 31.193C212.437 31.193 212.077 31.0904 211.82 30.9365C211.511 30.7826 211.305 30.5261 211.15 30.2183V32.6809H210.738V27.0374H211.099V28.0122C211.253 27.7043 211.511 27.4478 211.768 27.2939C212.077 27.14 212.386 27.0374 212.746 27.0374C213.158 27.0887 213.519 27.1913 213.828 27.3452ZM213.622 30.7313C213.879 30.5774 214.085 30.3722 214.239 30.1157C214.394 29.8591 214.445 29.5513 214.445 29.1922C214.445 28.833 214.394 28.5765 214.239 28.2687C214.085 28.0122 213.879 27.807 213.622 27.653C213.364 27.4991 213.107 27.4478 212.746 27.4478C212.437 27.4478 212.128 27.4991 211.871 27.653C211.614 27.807 211.408 28.0122 211.253 28.2687C211.099 28.5252 211.047 28.833 211.047 29.1922C211.047 29.5513 211.099 29.8078 211.253 30.1157C211.408 30.3722 211.614 30.5774 211.871 30.7313C212.128 30.8852 212.386 30.9365 212.746 30.9365C213.055 30.9365 213.364 30.8339 213.622 30.7313Z" fill="#333333"/>
<path d="M213.828 27.3452C214.136 27.4991 214.394 27.7557 214.548 28.0635C214.703 28.3713 214.806 28.7304 214.806 29.1409C214.806 29.5513 214.703 29.9104 214.548 30.2183C214.394 30.5261 214.136 30.7826 213.828 30.9365C213.519 31.0904 213.158 31.193 212.798 31.193C212.437 31.193 212.077 31.0904 211.82 30.9365C211.511 30.7826 211.305 30.5261 211.15 30.2183V32.6809H210.738V27.0374H211.099V28.0122C211.253 27.7043 211.511 27.4478 211.768 27.2939C212.077 27.14 212.386 27.0374 212.746 27.0374C213.158 27.0887 213.519 27.1913 213.828 27.3452ZM213.622 30.7313C213.879 30.5774 214.085 30.3722 214.239 30.1157C214.394 29.8591 214.445 29.5513 214.445 29.1922C214.445 28.833 214.394 28.5765 214.239 28.2687C214.085 28.0122 213.879 27.807 213.622 27.653C213.364 27.4991 213.107 27.4478 212.746 27.4478C212.437 27.4478 212.128 27.4991 211.871 27.653C211.614 27.807 211.408 28.0122 211.253 28.2687C211.099 28.5252 211.047 28.833 211.047 29.1922C211.047 29.5513 211.099 29.8078 211.253 30.1157C211.408 30.3722 211.614 30.5774 211.871 30.7313C212.128 30.8852 212.386 30.9365 212.746 30.9365C213.055 30.9365 213.364 30.8339 213.622 30.7313Z" stroke="#444444"/>
</g>
<g style="mix-blend-mode:multiply">
<path d="M216.711 31.0391C216.402 30.8852 216.144 30.6287 215.99 30.2696C215.835 29.9617 215.732 29.6026 215.732 29.1922C215.732 28.7817 215.835 28.4226 215.99 28.1148C216.144 27.807 216.402 27.5504 216.711 27.3452C217.02 27.1913 217.38 27.0887 217.792 27.0887C218.204 27.0887 218.513 27.1913 218.873 27.3452C219.182 27.4991 219.44 27.7556 219.594 28.1148C219.748 28.4226 219.851 28.7817 219.851 29.1922C219.851 29.6026 219.748 29.9617 219.594 30.2696C219.44 30.5774 219.182 30.8339 218.873 31.0391C218.564 31.193 218.204 31.2956 217.792 31.2956C217.38 31.2956 217.02 31.193 216.711 31.0391ZM218.616 30.7313C218.873 30.5774 219.079 30.3722 219.234 30.1156C219.388 29.8591 219.44 29.5513 219.44 29.1922C219.44 28.833 219.388 28.5765 219.234 28.2687C219.079 28.0122 218.873 27.807 218.616 27.653C218.358 27.4991 218.101 27.4478 217.74 27.4478C217.432 27.4478 217.123 27.4991 216.865 27.653C216.608 27.807 216.402 28.0122 216.247 28.2687C216.093 28.5252 216.041 28.833 216.041 29.1922C216.041 29.5513 216.093 29.8078 216.247 30.1156C216.402 30.3722 216.608 30.5774 216.865 30.7313C217.123 30.8852 217.38 30.9365 217.74 30.9365C218.101 30.9365 218.358 30.8339 218.616 30.7313Z" fill="#333333"/>
<path d="M216.711 31.0391C216.402 30.8852 216.144 30.6287 215.99 30.2696C215.835 29.9617 215.732 29.6026 215.732 29.1922C215.732 28.7817 215.835 28.4226 215.99 28.1148C216.144 27.807 216.402 27.5504 216.711 27.3452C217.02 27.1913 217.38 27.0887 217.792 27.0887C218.204 27.0887 218.513 27.1913 218.873 27.3452C219.182 27.4991 219.44 27.7556 219.594 28.1148C219.748 28.4226 219.851 28.7817 219.851 29.1922C219.851 29.6026 219.748 29.9617 219.594 30.2696C219.44 30.5774 219.182 30.8339 218.873 31.0391C218.564 31.193 218.204 31.2956 217.792 31.2956C217.38 31.2956 217.02 31.193 216.711 31.0391ZM218.616 30.7313C218.873 30.5774 219.079 30.3722 219.234 30.1156C219.388 29.8591 219.44 29.5513 219.44 29.1922C219.44 28.833 219.388 28.5765 219.234 28.2687C219.079 28.0122 218.873 27.807 218.616 27.653C218.358 27.4991 218.101 27.4478 217.74 27.4478C217.432 27.4478 217.123 27.4991 216.865 27.653C216.608 27.807 216.402 28.0122 216.247 28.2687C216.093 28.5252 216.041 28.833 216.041 29.1922C216.041 29.5513 216.093 29.8078 216.247 30.1156C216.402 30.3722 216.608 30.5774 216.865 30.7313C217.123 30.8852 217.38 30.9365 217.74 30.9365C218.101 30.9365 218.358 30.8339 218.616 30.7313Z" stroke="#444444"/>
</g>
<g style="mix-blend-mode:multiply">
<path d="M224.485 30.167C224.485 30.5261 224.331 30.7826 224.073 30.9878C223.816 31.193 223.404 31.2956 222.889 31.2956H221.087V27.1913H222.837C223.301 27.1913 223.661 27.2939 223.919 27.4478C224.176 27.653 224.331 27.9096 224.331 28.2174C224.331 28.4739 224.279 28.6791 224.125 28.833C223.97 28.987 223.816 29.0896 223.558 29.1922C224.176 29.2435 224.485 29.5513 224.485 30.167ZM221.499 28.987H222.837C223.198 28.987 223.455 28.9356 223.661 28.7817C223.867 28.6278 223.97 28.4739 223.97 28.2174C223.97 27.9609 223.867 27.7556 223.713 27.653C223.507 27.4991 223.249 27.4478 222.889 27.4478H221.55V28.987H221.499ZM224.073 30.1156C224.073 29.8591 223.97 29.6539 223.816 29.5C223.61 29.3461 223.352 29.2948 222.992 29.2948H221.55V30.8852H222.94C223.713 30.9365 224.073 30.68 224.073 30.1156Z" fill="#333333"/>
<path d="M224.485 30.167C224.485 30.5261 224.331 30.7826 224.073 30.9878C223.816 31.193 223.404 31.2956 222.889 31.2956H221.087V27.1913H222.837C223.301 27.1913 223.661 27.2939 223.919 27.4478C224.176 27.653 224.331 27.9096 224.331 28.2174C224.331 28.4739 224.279 28.6791 224.125 28.833C223.97 28.987 223.816 29.0896 223.558 29.1922C224.176 29.2435 224.485 29.5513 224.485 30.167ZM221.499 28.987H222.837C223.198 28.987 223.455 28.9356 223.661 28.7817C223.867 28.6278 223.97 28.4739 223.97 28.2174C223.97 27.9609 223.867 27.7556 223.713 27.653C223.507 27.4991 223.249 27.4478 222.889 27.4478H221.55V28.987H221.499ZM224.073 30.1156C224.073 29.8591 223.97 29.6539 223.816 29.5C223.61 29.3461 223.352 29.2948 222.992 29.2948H221.55V30.8852H222.94C223.713 30.9365 224.073 30.68 224.073 30.1156Z" stroke="#444444"/>
</g>
<g style="mix-blend-mode:multiply">
<path d="M187.466 42.3261V37.6061L185.149 41.6078H184.943L182.626 37.6061V42.3261H182.214V36.7852H182.574L185.046 41.0435L187.517 36.7852H187.826V42.3261H187.466Z" fill="#333333"/>
<path d="M187.466 42.3261V37.6061L185.149 41.6078H184.943L182.626 37.6061V42.3261H182.214V36.7852H182.574L185.046 41.0435L187.517 36.7852H187.826V42.3261H187.466Z" stroke="#444444"/>
</g>
<g style="mix-blend-mode:multiply">
<path d="M190.349 42.0696C190.04 41.9157 189.783 41.6591 189.629 41.3C189.474 40.9922 189.371 40.633 189.371 40.2226C189.371 39.8122 189.474 39.453 189.629 39.1452C189.783 38.8374 190.04 38.5809 190.349 38.3757C190.658 38.2217 191.019 38.1191 191.431 38.1191C191.842 38.1191 192.151 38.2217 192.512 38.3757C192.821 38.5296 193.078 38.7861 193.233 39.1452C193.387 39.453 193.49 39.8122 193.49 40.2226C193.49 40.633 193.387 40.9922 193.233 41.3C193.078 41.6078 192.821 41.8643 192.512 42.0696C192.203 42.2235 191.842 42.3261 191.431 42.3261C191.019 42.3261 190.658 42.2748 190.349 42.0696ZM192.254 41.7617C192.512 41.6078 192.718 41.4026 192.872 41.1461C193.027 40.8896 193.078 40.5817 193.078 40.2226C193.078 39.8635 193.027 39.607 192.872 39.2991C192.718 39.0426 192.512 38.8374 192.254 38.6835C191.997 38.5296 191.74 38.4783 191.379 38.4783C191.07 38.4783 190.761 38.5296 190.504 38.6835C190.246 38.8374 190.04 39.0426 189.886 39.2991C189.732 39.5557 189.68 39.8635 189.68 40.2226C189.68 40.5817 189.732 40.8383 189.886 41.1461C190.04 41.4026 190.246 41.6078 190.504 41.7617C190.761 41.9157 191.019 41.967 191.379 41.967C191.688 41.967 191.997 41.9157 192.254 41.7617Z" fill="#333333"/>
<path d="M190.349 42.0696C190.04 41.9157 189.783 41.6591 189.629 41.3C189.474 40.9922 189.371 40.633 189.371 40.2226C189.371 39.8122 189.474 39.453 189.629 39.1452C189.783 38.8374 190.04 38.5809 190.349 38.3757C190.658 38.2217 191.019 38.1191 191.431 38.1191C191.842 38.1191 192.151 38.2217 192.512 38.3757C192.821 38.5296 193.078 38.7861 193.233 39.1452C193.387 39.453 193.49 39.8122 193.49 40.2226C193.49 40.633 193.387 40.9922 193.233 41.3C193.078 41.6078 192.821 41.8643 192.512 42.0696C192.203 42.2235 191.842 42.3261 191.431 42.3261C191.019 42.3261 190.658 42.2748 190.349 42.0696ZM192.254 41.7617C192.512 41.6078 192.718 41.4026 192.872 41.1461C193.027 40.8896 193.078 40.5817 193.078 40.2226C193.078 39.8635 193.027 39.607 192.872 39.2991C192.718 39.0426 192.512 38.8374 192.254 38.6835C191.997 38.5296 191.74 38.4783 191.379 38.4783C191.07 38.4783 190.761 38.5296 190.504 38.6835C190.246 38.8374 190.04 39.0426 189.886 39.2991C189.732 39.5557 189.68 39.8635 189.68 40.2226C189.68 40.5817 189.732 40.8383 189.886 41.1461C190.04 41.4026 190.246 41.6078 190.504 41.7617C190.761 41.9157 191.019 41.967 191.379 41.967C191.688 41.967 191.997 41.9157 192.254 41.7617Z" stroke="#444444"/>
</g>
<g style="mix-blend-mode:multiply">
<path d="M195.343 42.0696C195.035 41.9157 194.777 41.6591 194.623 41.3C194.468 40.9409 194.365 40.633 194.365 40.2226C194.365 39.8122 194.468 39.4531 194.623 39.1452C194.777 38.8374 195.035 38.5809 195.343 38.427C195.652 38.273 196.013 38.1704 196.425 38.1704C196.734 38.1704 197.043 38.2217 197.351 38.3757C197.609 38.5296 197.866 38.6835 198.021 38.94L197.712 39.1452C197.557 38.94 197.403 38.7861 197.146 38.6835C196.94 38.5809 196.682 38.5296 196.425 38.5296C196.116 38.5296 195.807 38.5809 195.549 38.7348C195.292 38.8887 195.086 39.0939 194.932 39.3504C194.777 39.607 194.726 39.9148 194.726 40.2739C194.726 40.633 194.777 40.9409 194.932 41.1974C195.086 41.4539 195.292 41.6591 195.549 41.813C195.807 41.967 196.116 42.0183 196.425 42.0183C196.682 42.0183 196.94 41.967 197.146 41.8644C197.352 41.7617 197.557 41.6078 197.712 41.4026L198.021 41.6078C197.866 41.8644 197.609 42.0183 197.351 42.1722C197.094 42.3261 196.785 42.3774 196.425 42.3774C196.013 42.3261 195.652 42.2748 195.343 42.0696Z" fill="#333333"/>
<path d="M195.343 42.0696C195.035 41.9157 194.777 41.6591 194.623 41.3C194.468 40.9409 194.365 40.633 194.365 40.2226C194.365 39.8122 194.468 39.4531 194.623 39.1452C194.777 38.8374 195.035 38.5809 195.343 38.427C195.652 38.273 196.013 38.1704 196.425 38.1704C196.734 38.1704 197.043 38.2217 197.351 38.3757C197.609 38.5296 197.866 38.6835 198.021 38.94L197.712 39.1452C197.557 38.94 197.403 38.7861 197.146 38.6835C196.94 38.5809 196.682 38.5296 196.425 38.5296C196.116 38.5296 195.807 38.5809 195.549 38.7348C195.292 38.8887 195.086 39.0939 194.932 39.3504C194.777 39.607 194.726 39.9148 194.726 40.2739C194.726 40.633 194.777 40.9409 194.932 41.1974C195.086 41.4539 195.292 41.6591 195.549 41.813C195.807 41.967 196.116 42.0183 196.425 42.0183C196.682 42.0183 196.94 41.967 197.146 41.8644C197.352 41.7617 197.557 41.6078 197.712 41.4026L198.021 41.6078C197.866 41.8644 197.609 42.0183 197.351 42.1722C197.094 42.3261 196.785 42.3774 196.425 42.3774C196.013 42.3261 195.652 42.2748 195.343 42.0696Z" stroke="#444444"/>
</g>
<g style="mix-blend-mode:multiply">
<path d="M200.544 40.3765H199.514V42.2748H199.103V38.1704H199.514V40.0174H200.544L202.089 38.1704H202.501L200.802 40.1713L202.604 42.2748H202.14L200.544 40.3765Z" fill="#333333"/>
<path d="M200.544 40.3765H199.514V42.2748H199.103V38.1704H199.514V40.0174H200.544L202.089 38.1704H202.501L200.802 40.1713L202.604 42.2748H202.14L200.544 40.3765Z" stroke="#444444"/>
</g>
<g style="mix-blend-mode:multiply">
<path d="M207.031 41.1974C207.031 41.5565 206.877 41.813 206.619 42.0183C206.362 42.2235 205.95 42.3261 205.435 42.3261H203.633V38.2217H205.383C205.847 38.2217 206.207 38.3243 206.465 38.4783C206.722 38.6835 206.877 38.94 206.877 39.2478C206.877 39.5043 206.825 39.7096 206.671 39.8635C206.516 40.0174 206.362 40.12 206.104 40.2226C206.722 40.2739 207.031 40.633 207.031 41.1974ZM204.045 40.0687H205.383C205.744 40.0687 206.001 40.0174 206.207 39.8635C206.413 39.7096 206.516 39.5557 206.516 39.2991C206.516 39.0426 206.413 38.8374 206.259 38.7348C206.053 38.5809 205.795 38.5296 205.435 38.5296H204.096V40.0687H204.045ZM206.619 41.1974C206.619 40.9409 206.516 40.7357 206.362 40.5817C206.156 40.4278 205.898 40.3765 205.538 40.3765H204.096V41.967H205.486C206.259 41.967 206.619 41.7104 206.619 41.1974Z" fill="#333333"/>
<path d="M207.031 41.1974C207.031 41.5565 206.877 41.813 206.619 42.0183C206.362 42.2235 205.95 42.3261 205.435 42.3261H203.633V38.2217H205.383C205.847 38.2217 206.207 38.3243 206.465 38.4783C206.722 38.6835 206.877 38.94 206.877 39.2478C206.877 39.5043 206.825 39.7096 206.671 39.8635C206.516 40.0174 206.362 40.12 206.104 40.2226C206.722 40.2739 207.031 40.633 207.031 41.1974ZM204.045 40.0687H205.383C205.744 40.0687 206.001 40.0174 206.207 39.8635C206.413 39.7096 206.516 39.5557 206.516 39.2991C206.516 39.0426 206.413 38.8374 206.259 38.7348C206.053 38.5809 205.795 38.5296 205.435 38.5296H204.096V40.0687H204.045ZM206.619 41.1974C206.619 40.9409 206.516 40.7357 206.362 40.5817C206.156 40.4278 205.898 40.3765 205.538 40.3765H204.096V41.967H205.486C206.259 41.967 206.619 41.7104 206.619 41.1974Z" stroke="#444444"/>
</g>
<g style="mix-blend-mode:multiply">
<path d="M211.253 40.0174C211.51 40.2226 211.665 40.5304 211.665 40.9922C211.665 41.4539 211.51 41.7617 211.253 42.0183C210.944 42.2748 210.532 42.3774 210.017 42.3774H208.473V38.273H208.885V39.7609H210.12C210.584 39.7096 210.996 39.8122 211.253 40.0174ZM210.944 41.7617C211.15 41.6078 211.253 41.3513 211.253 40.9922C211.253 40.6844 211.15 40.4278 210.944 40.2739C210.738 40.12 210.429 40.0174 209.966 40.0174H208.833V42.0183H209.966C210.378 42.0183 210.687 41.9157 210.944 41.7617ZM212.386 38.1704H212.798V42.2748H212.386V38.1704Z" fill="#333333"/>
<path d="M211.253 40.0174C211.51 40.2226 211.665 40.5304 211.665 40.9922C211.665 41.4539 211.51 41.7617 211.253 42.0183C210.944 42.2748 210.532 42.3774 210.017 42.3774H208.473V38.273H208.885V39.7609H210.12C210.584 39.7096 210.996 39.8122 211.253 40.0174ZM210.944 41.7617C211.15 41.6078 211.253 41.3513 211.253 40.9922C211.253 40.6844 211.15 40.4278 210.944 40.2739C210.738 40.12 210.429 40.0174 209.966 40.0174H208.833V42.0183H209.966C210.378 42.0183 210.687 41.9157 210.944 41.7617ZM212.386 38.1704H212.798V42.2748H212.386V38.1704Z" stroke="#444444"/>
</g>
</g>
<path d="M169.445 13.5443V43.4548" stroke="#444444" stroke-miterlimit="10"/>
<path d="M48.2949 10.8765C52.4653 15.0322 54.9882 20.2652 55.7605 25.7035L58.5408 25.4983C57.717 19.4443 54.9367 13.5443 50.3029 8.87565C48.3978 6.97739 46.3383 5.43826 44.1244 4.15565L42.8887 6.66956C44.7937 7.79826 46.6473 9.23478 48.2949 10.8765Z" fill="#223334"/>
<path d="M11.0183 10.8765C11.7906 10.107 12.5629 9.3887 13.3867 8.77304L11.7906 6.46435C10.8124 7.23391 9.88559 8.00348 9.01031 8.92696C7.77461 10.1583 6.74486 11.4409 5.7666 12.7748L8.13502 14.2626C9.01031 13.0313 9.93708 11.9026 11.0183 10.8765Z" fill="#00A48A"/>
<path d="M53.5469 40.5817L56.0183 41.9157C57.9748 37.8113 58.9016 33.2965 58.7986 28.833L56.0183 29.0383C56.0698 32.9887 55.246 36.9391 53.5469 40.5817Z" fill="#005D62"/>
<path d="M39.8516 5.23304L41.0873 2.71913C32.5404 -0.872179 22.6548 -0.256525 14.5713 4.56608L16.1674 6.87478C23.3756 2.61652 32.2315 2.05218 39.8516 5.23304Z" fill="#005D62"/>
<path d="M6.3845 17.0843L4.01608 15.5965C-1.02969 24.8826 -0.669278 36.3235 5.1488 45.2504L7.41425 43.6087C2.26551 35.5539 1.95658 25.3957 6.3845 17.0843Z" fill="#223334"/>
<path d="M48.2954 48.0722C42.6318 53.7156 35.0116 56.2296 27.5974 55.6652L27.1855 58.4356C35.4235 59.1026 43.919 56.3322 50.2519 50.0217C51.848 48.4313 53.2382 46.687 54.3709 44.8913L51.8995 43.5574C50.9212 45.1478 49.737 46.6356 48.2954 48.0722Z" fill="#223334"/>
<path d="M11.0188 48.0722C10.4524 47.5078 9.93755 46.9435 9.42267 46.3278L7.15723 47.9696C7.72359 48.6878 8.39292 49.3548 9.06226 50.0217C13.2842 54.2287 18.4845 56.8965 23.9421 57.9739L24.354 55.2035C19.4112 54.1774 14.7774 51.8174 11.0188 48.0722Z" fill="#00A48A"/>
<path d="M18.2268 48.6878C17.712 48.38 17.2486 48.0722 16.7337 47.713L14.9316 49.8678C15.498 50.2783 16.1159 50.6887 16.7852 51.0478C21.1616 53.613 26.0014 54.7417 30.7383 54.5365L30.4293 51.7661C26.3104 51.92 22.0884 50.9452 18.2268 48.6878Z" fill="#223334"/>
<path d="M10.3492 18.1104C10.7611 17.3922 11.2245 16.7252 11.7394 16.0583L9.62837 14.2113C9.01052 14.9809 8.49564 15.8017 7.98077 16.6739C7.25995 17.8539 6.69359 19.1365 6.17871 20.3678L8.85606 21.1887C9.26796 20.1626 9.78283 19.0852 10.3492 18.1104Z" fill="#00A48A"/>
<path d="M7.82608 24.4209L5.14873 23.6C3.03775 32.3217 5.76658 41.6078 12.4085 47.8156L14.2105 45.6609C8.44393 40.12 6.0755 32.0139 7.82608 24.4209Z" fill="#005D62"/>
<path d="M32.6434 7.33652L33.2098 4.61739C25.4352 3.54 17.4546 6.10522 11.791 11.6974L13.902 13.5443C18.8963 8.67043 25.8471 6.41304 32.6434 7.33652Z" fill="#1C3B40"/>
<path d="M41.0865 10.2609C45.36 12.7748 48.4492 16.4687 50.2513 20.6757L52.9286 19.7522C50.9206 14.9296 47.368 10.7226 42.5282 7.84956C40.6231 6.72087 38.6151 5.9 36.5556 5.28435L35.9893 8.00348C37.6883 8.51652 39.4389 9.28609 41.0865 10.2609Z" fill="#213030"/>
<path d="M51.7449 33.3478L54.4737 34.0148C55.1431 30.2696 54.9886 26.473 54.0104 22.8817L51.333 23.8052C52.1568 26.8835 52.3113 30.167 51.7449 33.3478Z" fill="#213030"/>
<path d="M48.9644 40.8383C45.5663 46.5843 39.9542 50.2783 33.8271 51.407L34.1361 54.1774C41.0869 52.9461 47.5228 48.7904 51.3844 42.2235C52.3111 40.633 53.0834 38.94 53.6498 37.247L50.921 36.58C50.4061 38.0165 49.7368 39.453 48.9644 40.8383Z" fill="#1C3B40"/>
<path d="M22.8607 46.533C22.2944 46.3278 21.7795 46.0713 21.2646 45.8148L19.7715 48.1748C20.4408 48.5339 21.1102 48.8417 21.831 49.0983C22.8607 49.5087 23.8905 49.8165 24.9202 50.073L25.3321 47.3026C24.5083 47.0974 23.6845 46.8409 22.8607 46.533Z" fill="#1C3B40"/>
<path d="M46.8023 36.2209C46.6478 36.58 46.4933 36.9391 46.3389 37.2983L48.7588 38.7348C48.9647 38.273 49.2222 37.76 49.4281 37.2983C50.9727 33.3991 51.2817 29.3461 50.5608 25.5496L47.832 26.2678C48.3984 29.5 48.0894 32.9374 46.8023 36.2209Z" fill="#005D62"/>
<path d="M28.6267 47.8157L28.2148 50.5861C35.5775 51.0991 42.7858 47.6617 47.0592 41.6078L44.6393 40.1713C40.9837 45.3017 34.8567 48.1235 28.6267 47.8157Z" fill="#005D62"/>
<path d="M36.4529 12.3643C41.4986 14.3652 45.1542 18.3156 46.9048 22.9843L49.6336 22.2661C47.6256 16.7765 43.3522 12.1078 37.4826 9.74782C36.0924 9.18348 34.7023 8.82435 33.3121 8.56783L33.0547 11.3383C34.1874 11.5948 35.3201 11.9539 36.4529 12.3643Z" fill="#00A48A"/>
<path d="M11.2244 30.167L8.39258 30.013C8.59853 36.4261 11.6878 42.5313 16.9395 46.3791L18.4326 44.0191C14.0562 40.7357 11.4303 35.6052 11.2244 30.167Z" fill="#1C3B40"/>
<path d="M29.7086 11.0817L29.966 8.3113C26.9283 8.26 23.9935 8.87565 21.2646 10.0556L22.6033 12.5183C24.8173 11.5948 27.2372 11.0817 29.7086 11.0817Z" fill="#005D62"/>
<path d="M12.5117 22.6765C13.9533 19.0339 16.4762 16.0583 19.5655 14.0574L18.2268 11.5948C14.5712 13.9035 11.5849 17.3409 9.88582 21.6504C9.21648 23.2922 8.80458 24.9852 8.59863 26.6783L11.4304 26.8322C11.5849 25.447 11.9453 24.0617 12.5117 22.6765Z" fill="#213030"/>
<path d="M44.0734 28.4739L46.9052 28.6278C46.5963 22.8817 43.4041 17.5461 38.4098 14.6217L37.2256 17.187C41.1901 19.5983 43.7645 23.8565 44.0734 28.4739Z" fill="#223334"/>
<path d="M15.2918 31.193H12.46C12.7174 33.3991 13.3352 35.5539 14.4165 37.5035L16.7849 35.9643C16.0126 34.4765 15.4977 32.8861 15.2918 31.193Z" fill="#005D62"/>
<path d="M25.692 43.3522C22.8087 42.5313 20.4403 40.8896 18.6382 38.7861L16.3213 40.3252C18.4838 42.993 21.4185 44.9939 24.9712 46.02C26.2584 46.3791 27.5455 46.5843 28.8327 46.6357L28.6783 43.8139C27.6485 43.7626 26.6703 43.6087 25.692 43.3522Z" fill="#213030"/>
<path d="M32.0254 43.7113L32.1799 46.533C37.1226 45.8148 41.602 42.9417 44.3309 38.6835L41.808 37.4522C39.5426 40.7357 35.9384 43.0444 32.0254 43.7113Z" fill="#00A48A"/>
<path d="M43.5579 33.4504C43.455 33.7583 43.352 34.0661 43.249 34.3739L45.7719 35.6052C45.9264 35.1435 46.1323 34.6817 46.2353 34.1687C46.4412 33.3991 46.5957 32.6809 46.6987 31.9113L43.8669 31.7574C43.8669 32.373 43.7124 32.8861 43.5579 33.4504Z" fill="#1C3B40"/>
<path d="M15.7552 25.4983C16.8879 21.5478 19.5652 18.4696 22.9634 16.6739L21.9336 14.0574C17.7632 16.1609 14.4165 19.9061 13.0263 24.7287C12.7174 25.7548 12.5114 26.8322 12.46 27.9096H15.2918C15.3433 27.0887 15.4977 26.2678 15.7552 25.4983Z" fill="#005D62"/>
<path d="M33.6211 15.5965C33.7756 15.6478 33.9815 15.6991 34.136 15.7504L35.3202 13.1852C35.0113 13.0826 34.7024 12.98 34.3934 12.8774C31.2527 11.9539 28.009 12.0052 25.0742 12.8261L26.104 15.4426C28.4724 14.8783 31.0982 14.8783 33.6211 15.5965Z" fill="#1C3B40"/>
</g>
<defs>
<clipPath id="clip0_1095_1407">
<rect width="225" height="59" fill="white"/>
</clipPath>
</defs>
</svg>
